<?xml version="1.0" encoding="utf-8"?>
<!-- Generator: Adobe Illustrator 23.0.2, SVG Export Plug-In . SVG Version: 6.00 Build 0)  -->
<svg version="1.1" id="Layer_1" xmlns="http://www.w3.org/2000/svg" xmlns:xlink="http://www.w3.org/1999/xlink" x="0px" y="0px"
	 viewBox="0 0 203.8 64.8" style="enable-background:new 0 0 203.8 64.8;" xml:space="preserve">
<g>
	<path d="M77.3,39.2h2.1v2.2h-7.1v-2.2h2.1v-8.3h-2.1v-2.2h7.1v2.2h-2.1v2.9h5.5v-2.9h-2.1v-2.2h7.1v2.2h-2.2v8.3h2.2v2.2h-7.1v-2.2
		h2.1v-3.3h-5.5V39.2z" style="fill:#FFFFFF;stroke:none"/>
	<path d="M95,39.2v2.2h-5.7v-2.2H91v-4.8h-1.7v-2.1h4.3v7L95,39.2L95,39.2z M92.4,31.5c-0.9,0-1.5-0.7-1.5-1.5s0.7-1.5,1.5-1.5
		s1.5,0.7,1.5,1.5S93.2,31.5,92.4,31.5z" style="fill:#FFFFFF;stroke:none"/>
	<path d="M99.6,33.3c-0.7,0-1,0.3-1,0.9c0,2.2,6.1,0.8,6.1,4.7c0,2.1-1.8,2.9-3.6,2.9c-1.3,0-2.4-0.6-2.8-2h-0.1l0.1,1.8h-2v-3.4
		h2.4c0,1.5,0.7,2.3,2.2,2.3c0.8,0,1.3-0.4,1.3-1c0-2.2-6.1-0.8-6.1-4.7c0-1.8,1.6-2.8,3.2-2.8c1.5,0,2.6,0.7,2.7,2.1h0.1
		c0-0.6,0-1.2,0-1.8h2v3.3h-2.5C101.6,33.8,100.7,33.3,99.6,33.3z" style="fill:#FFFFFF;stroke:none"/>
	<path d="M107.1,39.2v-4.7h-1.9v-1.2c2.1,0,3.4-0.9,3.3-3.9h1.2v3h3.6v2.2h-3.6v4.3c0,0.6,0.5,1,1.1,1c0.6,0,1.1-0.3,1.1-1v-1.3h1.4
		v1.6c0,1.9-1.6,2.7-3.1,2.7S107.1,40.9,107.1,39.2z" style="fill:#FFFFFF;stroke:none"/>
	<path d="M119.6,41.7c-2.9,0-5.2-2.2-5.2-5c0-2.9,2.3-4.9,5.2-4.9s5.2,2.1,5.2,4.9C124.8,39.5,122.5,41.7,119.6,41.7z M119.6,40
		c1.7,0,2.1-0.5,2.1-3.1c0-2.3-0.4-3.1-2.1-3.1c-1.6,0-2.2,0.6-2.2,3.1C117.4,39.3,117.9,40,119.6,40z" style="fill:#FFFFFF;stroke:none"/>
	<path d="M132.5,31.9c1.5,0,2.3,0.9,2.3,2.1c0,1.1-0.7,1.9-1.8,1.9c-1,0-1.6-0.7-1.6-1.5c0-0.5,0.2-0.8,0.5-1
		c-0.2,0-0.3,0.1-0.6,0.1c-0.7,0.3-1.4,1.3-1.4,2.8v2.9h2.2v2.2h-6.5v-2.2h1.6v-4.8h-1.7v-2.1h3.8c0,0.7-0.1,2-0.2,2.9h0.2
		C129.5,33.2,130.9,31.9,132.5,31.9z" style="fill:#FFFFFF;stroke:none"/>
	<path d="M141.4,39.2v2.2h-5.8v-2.2h1.7v-4.8h-1.7v-2.1h4.3v7L141.4,39.2L141.4,39.2z M138.7,31.5c-0.9,0-1.5-0.7-1.5-1.5
		s0.7-1.5,1.5-1.5s1.5,0.7,1.5,1.5S139.5,31.5,138.7,31.5z" style="fill:#FFFFFF;stroke:none"/>
	<path d="M147.1,33.2c-1.6,0-2.6,1.6-2.6,3.1c0,1.8,1.1,3,2.7,3c0.9,0,1.8-0.4,2.4-1.4l1.5,1.6c-0.9,1.5-2.3,2.2-4.2,2.2
		c-2.9,0-4.8-2.3-4.8-4.9c0-3.1,2.4-5,5-5c1.9,0,3.5,0.8,3.5,2.4c0,1-0.8,1.8-1.8,1.8s-1.7-0.5-1.7-1.6c0-0.5,0.2-1,0.6-1.2
		C147.5,33.2,147.4,33.2,147.1,33.2z" style="fill:#FFFFFF;stroke:none"/>
	<path d="M81,56.9c0-0.9-0.5-1.7-2-1.7h-1.7v3.1h1.9v2.2h-7v-2.2h2.1V50h-2.1v-2.2h8c3,0,4.6,1.6,4.6,3.4c0,1.6-1.2,3.1-3.9,3.1v0.2
		c2.1,0,2.8,1,2.8,2.4c0,0.9-0.1,1.4-0.1,1.8c0,0.3,0.2,0.4,0.4,0.4c0.3,0,0.6-0.2,0.6-0.8V57h1.3v1.3c0,1.7-1.3,2.6-2.9,2.6
		c-1.3,0-2.3-0.6-2.3-2.1C80.9,58.1,81,57.6,81,56.9z M77.3,50v3.4h1.8c2.1,0,2.7-0.7,2.7-1.7c0-0.9-0.6-1.7-2.2-1.7
		C79.6,50,77.3,50,77.3,50z" style="fill:#FFFFFF;stroke:none"/>
	<path d="M92.2,60.9c-2.9,0-5.2-2.2-5.2-5c0-2.9,2.3-4.9,5.2-4.9c2.9,0,5.2,2.1,5.2,4.9C97.3,58.6,95.1,60.9,92.2,60.9z M92.2,59.1
		c1.7,0,2.1-0.5,2.1-3.1c0-2.3-0.4-3.1-2.1-3.1c-1.6,0-2.2,0.6-2.2,3.1C90,58.4,90.5,59.1,92.2,59.1z" style="fill:#FFFFFF;stroke:none"/>
	<path d="M97.3,61.8c0-1.1,0.6-2,1.7-2c0.9,0,1.6,0.7,1.6,1.6c0,1-1,1.7-2,1.5c0.3,0.3,0.7,0.5,1.3,0.5c1.1,0,1.9-0.7,2.2-3.1
		l-3.4-6.8h-1.1v-2.2h5.3v2.2h-1.3c0.7,1.5,1.3,3.2,1.8,4.6c0.5-1.4,1.1-3.1,1.7-4.6h-1.3v-2.2h4.6v2.2h-1.1l-3.8,8
		c-0.9,1.9-2.2,2.7-3.6,2.7C98.6,64.3,97.3,63.5,97.3,61.8z" style="fill:#FFFFFF;stroke:none"/>
	<path d="M114.9,54.4c0-1.6-0.7-2.2-1.9-2.2c-0.6,0-1.1,0.1-1.5,0.4c0.7,0.1,1,0.6,1,1.2c0,0.8-0.7,1.3-1.5,1.3
		c-0.7,0-1.5-0.5-1.5-1.5c0-1.5,1.7-2.5,4-2.5c2.6,0,4.2,0.9,4.2,3.3c0,1.6-0.2,2.7-0.2,3.9c0,0.4,0.1,0.6,0.4,0.6
		c0.2,0,0.5-0.1,0.5-0.7v-0.8h1.1v0.7c0,1.7-0.6,2.8-2.1,2.8c-0.9,0-1.7-0.4-1.7-1.9c0-0.4,0-0.8,0.1-1.1h-0.2
		c-0.4,2.1-1.9,3.2-3.5,3.2c-1.7,0-3-0.9-3-2.7c0-1.6,1.5-3,4.4-3c0.5,0,1,0,1.5,0.1C114.9,55,114.9,54.7,114.9,54.4z M113.8,56.1
		c-1.5,0-2.1,0.8-2.1,1.5s0.5,1.1,1.2,1.1c0.8,0,1.8-0.5,1.9-2.5C114.5,56.1,114.1,56.1,113.8,56.1z" style="fill:#FFFFFF;stroke:none"/>
	<path d="M126.2,58.3v2.2h-5.7v-2.2h1.7V50h-1.7v-2.2h4.3v10.5H126.2z" style="fill:#FFFFFF;stroke:none"/>
	<path d="M131.4,60.5v-2.2h2.1V50h-2.1v-2.2h7.7c2.7,0,5.1,1.4,5.1,4c0,2.1-1.7,4-5.3,4h-2.5v2.5h2.3v2.2H131.4z M136.5,50v3.7h2.1
		c1.7,0,2.5-0.8,2.5-1.9c0-1-0.6-1.9-2.2-1.9h-2.4V50z" style="fill:#FFFFFF;stroke:none"/>
	<path d="M150.9,54.4c0-1.6-0.7-2.2-1.9-2.2c-0.6,0-1.1,0.1-1.5,0.4c0.7,0.1,1,0.6,1,1.2c0,0.8-0.7,1.3-1.5,1.3
		c-0.7,0-1.5-0.5-1.5-1.5c0-1.5,1.7-2.5,4-2.5c2.6,0,4.2,0.9,4.2,3.3c0,1.6-0.2,2.7-0.2,3.9c0,0.4,0.1,0.6,0.4,0.6
		c0.2,0,0.5-0.1,0.5-0.7v-0.8h1.1v0.7c0,1.7-0.6,2.8-2.1,2.8c-0.9,0-1.7-0.4-1.7-1.9c0-0.4,0-0.8,0.1-1.1h-0.2
		c-0.4,2.1-1.9,3.2-3.5,3.2c-1.7,0-3-0.9-3-2.7c0-1.6,1.5-3,4.4-3c0.5,0,1,0,1.5,0.1C150.9,55,150.9,54.7,150.9,54.4z M149.8,56.1
		c-1.5,0-2.1,0.8-2.1,1.5s0.5,1.1,1.2,1.1c0.8,0,1.8-0.5,1.9-2.5C150.4,56.1,150.1,56.1,149.8,56.1z" style="fill:#FFFFFF;stroke:none"/>
	<path d="M162.1,58.3v2.2h-5.7v-2.2h1.7V50h-1.7v-2.2h4.3v10.5H162.1z" style="fill:#FFFFFF;stroke:none"/>
	<path d="M168.9,54.4c0-1.6-0.7-2.2-1.9-2.2c-0.6,0-1.1,0.1-1.5,0.4c0.7,0.1,1,0.6,1,1.2c0,0.8-0.7,1.3-1.5,1.3
		c-0.7,0-1.5-0.5-1.5-1.5c0-1.5,1.7-2.5,4-2.5c2.6,0,4.2,0.9,4.2,3.3c0,1.6-0.2,2.7-0.2,3.9c0,0.4,0.1,0.6,0.4,0.6
		c0.2,0,0.5-0.1,0.5-0.7v-0.8h1.1v0.7c0,1.7-0.6,2.8-2.1,2.8c-0.9,0-1.7-0.4-1.7-1.9c0-0.4,0-0.8,0.1-1.1h-0.2
		c-0.4,2.1-1.9,3.2-3.5,3.2c-1.7,0-3-0.9-3-2.7c0-1.6,1.5-3,4.4-3c0.5,0,1,0,1.5,0.1C168.9,55,168.9,54.7,168.9,54.4z M167.8,56.1
		c-1.5,0-2.1,0.8-2.1,1.5s0.5,1.1,1.2,1.1c0.8,0,1.8-0.5,1.9-2.5C168.5,56.1,168.1,56.1,167.8,56.1z" style="fill:#FFFFFF;stroke:none"/>
	<path d="M179,52.3c-1.6,0-2.6,1.6-2.6,3.1c0,1.8,1.1,3,2.7,3c0.9,0,1.8-0.4,2.4-1.4l1.5,1.6c-0.9,1.5-2.3,2.2-4.2,2.2
		c-2.9,0-4.8-2.3-4.8-4.9c0-3.1,2.4-5,5-5c1.9,0,3.5,0.8,3.5,2.4c0,1-0.8,1.8-1.8,1.8s-1.7-0.5-1.7-1.6c0-0.5,0.2-1,0.6-1.2
		C179.4,52.3,179.3,52.3,179,52.3z" style="fill:#FFFFFF;stroke:none"/>
	<path d="M191.7,57.5l1,0.6c-0.8,1.8-2.2,2.7-4.1,2.7c-3,0-5-2.2-5-5c0-3.1,2.5-4.9,5-4.9c3.1,0,4.7,2.1,4.5,5.3h-6.7
		c0.1,1.8,1.3,2.7,2.8,2.7C190.4,59,191.3,58.5,191.7,57.5z M188.8,52.8c-1.2,0-2.1,0.9-2.2,2.1h4.3C190.8,53.6,190,52.8,188.8,52.8
		z" style="fill:#FFFFFF;stroke:none"/>
	<path d="M197.8,52.4c-0.7,0-1,0.3-1,0.9c0,2.2,6.1,0.8,6.1,4.7c0,2.1-1.8,2.9-3.6,2.9c-1.3,0-2.4-0.6-2.8-2h-0.1l0.1,1.8h-2v-3.4
		h2.4c0,1.5,0.7,2.3,2.2,2.3c0.8,0,1.3-0.4,1.3-1c0-2.2-6.1-0.8-6.1-4.7c0-1.8,1.6-2.8,3.2-2.8c1.5,0,2.6,0.7,2.7,2.1h0.1
		c0-0.6,0-1.2,0-1.8h2v3.3h-2.4C199.8,52.9,198.9,52.4,197.8,52.4z" style="fill:#FFFFFF;stroke:none"/>
</g>
<g>
	<g>
		<path d="M28,22.7l-4.2,4.6l4.2,4.5l4.2-4.5L28,22.7z M26.7,7.1c0,1.1-0.4,2.3-2,2.9v0.4h6.5V10c-1.6-0.6-1.9-1.8-2-2.9
			c1.1,0,2.4,0.4,3,2h0.4V2.6h-0.4c-0.6,1.6-2,1.9-3,2c0-1.1,0.4-2.2,2-2.9V1.3h-6.5v0.4c1.6,0.6,1.9,1.8,2,2.9c-1.1,0-2.4-0.4-3-2
			h-0.4v6.5h0.4C24.3,7.5,25.7,7.2,26.7,7.1z M28,4.5c0.8,0,1.4,0.6,1.4,1.4S28.8,7.3,28,7.3c-0.8,0-1.4-0.6-1.4-1.4
			C26.6,5.1,27.2,4.5,28,4.5z M3.8,32.1c0-0.8-0.6-1.4-1.4-1.4S1,31.3,1,32.1c0,0.8,0.6,1.4,1.4,1.4C3.1,33.5,3.8,32.8,3.8,32.1z
			 M3.9,34.3c-0.8,0-1.4,0.6-1.4,1.4s0.6,1.4,1.4,1.4s1.4-0.6,1.4-1.4S4.6,34.3,3.9,34.3z M11.4,23c3.9,0,6.3,3,9,3
			c1.2,0,2.6-0.9,2.6-2.3c0-0.8-0.6-1.4-1.4-1.4c-0.8,0-1.4,0.6-1.4,1.4c0,0.7,0.5,1.2,1.1,1.4c-0.1,0-0.3,0.1-0.4,0.1
			c-2.6,0-5.3-3.1-9.5-3.1c-4.4,0-7.2,3.5-7.2,7.5c0,3.1,1.9,5.7,3,7.7c-0.1,0-0.2,0-0.3,0c-0.8,0-1.4,0.6-1.4,1.4s0.6,1.4,1.4,1.4
			s1.4-0.6,1.4-1.4c0-2.3-3.1-5-3.1-9C5.1,25.9,7.5,23,11.4,23z M2.2,29.5c0.8,0,1.4-0.6,1.4-1.4c0-0.8-0.6-1.4-1.4-1.4
			s-1.4,0.6-1.4,1.4C0.7,28.8,1.4,29.5,2.2,29.5z M3.6,25.6C4.4,25.6,5,25,5,24.2c0-0.8-0.6-1.4-1.4-1.4s-1.4,0.6-1.4,1.4
			S2.8,25.6,3.6,25.6z M6.3,22.8c0.8,0,1.4-0.6,1.4-1.4c0-0.8-0.6-1.4-1.4-1.4s-1.4,0.6-1.4,1.4C4.9,22.2,5.6,22.8,6.3,22.8z
			 M10.1,21.5c0.8,0,1.4-0.6,1.4-1.4c0-0.8-0.6-1.4-1.4-1.4s-1.4,0.6-1.4,1.4C8.7,20.9,9.4,21.5,10.1,21.5z M14.1,21.8
			c0.8,0,1.4-0.6,1.4-1.4S14.9,19,14.1,19c-0.8,0-1.4,0.6-1.4,1.4S13.4,21.8,14.1,21.8z M17.9,23.4c0.8,0,1.4-0.6,1.4-1.4
			c0-0.8-0.6-1.4-1.4-1.4c-0.8,0-1.4,0.6-1.4,1.4C16.5,22.7,17.1,23.4,17.9,23.4z M53.6,30.7c-0.8,0-1.4,0.6-1.4,1.4
			c0,0.8,0.6,1.4,1.4,1.4s1.4-0.6,1.4-1.4C55,31.3,54.4,30.7,53.6,30.7z M52.1,34.3c-0.8,0-1.4,0.6-1.4,1.4c0,0.8,0.6,1.4,1.4,1.4
			s1.4-0.6,1.4-1.4S52.9,34.3,52.1,34.3z M49.2,37.2c-0.1,0-0.2,0-0.3,0c1.1-2,3-4.5,3-7.7c0-4-2.8-7.5-7.2-7.5
			c-4.2,0-6.9,3.1-9.5,3.1c-0.1,0-0.3,0-0.4-0.1c0.6-0.1,1.1-0.7,1.1-1.4c0-0.8-0.6-1.4-1.4-1.4c-0.8,0-1.4,0.6-1.4,1.4
			c0,1.4,1.4,2.3,2.6,2.3c2.7,0,5.1-3,9-3s6.3,2.9,6.3,6.6c0,4-3.1,6.7-3.1,9c0,0.8,0.6,1.4,1.4,1.4s1.4-0.6,1.4-1.4
			C50.6,37.8,50,37.2,49.2,37.2z M53.8,26.7c-0.8,0-1.4,0.6-1.4,1.4c0,0.8,0.6,1.4,1.4,1.4s1.4-0.6,1.4-1.4S54.6,26.7,53.8,26.7z
			 M52.4,25.6c0.8,0,1.4-0.6,1.4-1.4c0-0.8-0.6-1.4-1.4-1.4S51,23.4,51,24.2S51.6,25.6,52.4,25.6z M49.6,22.8c0.8,0,1.4-0.6,1.4-1.4
			c0-0.8-0.6-1.4-1.4-1.4s-1.4,0.6-1.4,1.4S48.9,22.8,49.6,22.8z M45.8,21.5c0.8,0,1.4-0.6,1.4-1.4c0-0.8-0.6-1.4-1.4-1.4
			c-0.8,0-1.4,0.6-1.4,1.4C44.4,20.9,45,21.5,45.8,21.5z M41.8,21.8c0.8,0,1.4-0.6,1.4-1.4S42.6,19,41.8,19c-0.8,0-1.4,0.6-1.4,1.4
			S41.1,21.8,41.8,21.8z M38,23.4c0.8,0,1.4-0.6,1.4-1.4c0-0.8-0.6-1.4-1.4-1.4c-0.8,0-1.4,0.6-1.4,1.4C36.6,22.7,37.3,23.4,38,23.4
			z M28,21.4c2.5,0,4.6-2,4.7-4.4h-9.4C23.4,19.4,25.5,21.4,28,21.4z M28.3,11.9v4.4h4.4C32.5,14,30.7,12.1,28.3,11.9z M27.7,11.9
			c-2.4,0.2-4.3,2-4.4,4.4h4.4V11.9z M28,44.2c-1.7,1-3.4,2.1-3.4,3.6v5.5h6.9v-5.5C31.4,46.3,29.7,45.1,28,44.2z M21,46.1
			c-0.7,0.4-1.2,1.1-1.2,1.4v3.1h2.5v-3.1C22.2,47.3,21.8,46.6,21,46.1z M46,31.7c0-0.3-0.1-0.6-0.3-0.9c-0.2-0.4-0.6-0.7-1.2-0.9
			c-0.6-0.3-0.7-1-0.8-1.5v-0.2l0.1-0.1c0.2-0.1,0.4-0.4,0.4-0.6c0-0.3-0.2-0.5-0.4-0.7l-0.1-0.1v-0.4H43v0.4l-0.1,0.1
			c-0.3,0.1-0.4,0.4-0.4,0.7s0.1,0.5,0.4,0.6l0.1,0.1v0.2c-0.1,0.5-0.1,1.3-0.8,1.6c-0.6,0.3-1,0.5-1.2,0.9
			c-0.2,0.3-0.2,0.6-0.3,0.9v0.1l-0.9,0.4v0.4h7v-0.4L46,31.9L46,31.7z M18,53.3h5.9v-5.5c0-0.2,0-0.3,0.1-0.5V33.1h-6V53.3z
			 M20.3,35.6c0-0.3,0.3-0.6,0.7-0.6s0.7,0.3,0.7,0.6v2.7h-1.3v-2.7H20.3z M20.3,40.8c0-0.3,0.3-0.6,0.7-0.6s0.7,0.3,0.7,0.6v2.7
			h-1.3v-2.7H20.3z M19.3,47.5c0-0.6,0.8-1.5,1.6-1.9l0.1-0.1l0.1,0.1c0.8,0.4,1.6,1.3,1.6,1.9v3.6h-3.4
			C19.3,51.2,19.3,47.5,19.3,47.5z M31.5,37.8h-7v8.3c0.8-1.2,2.5-2.1,3.4-2.6l0.1-0.1l0.1,0.1c0.9,0.5,2.5,1.4,3.4,2.6V37.8
			L31.5,37.8z M30.2,42.5h-4.5v-3.4h4.5V42.5L30.2,42.5z M32,30.3v2.3h6v-2.3h-1.7v1.2h-2.4v-1.2H32z M9.9,54.6
			c1.3,1,2.8,1.5,4.5,1.5c1.6,0,3.1-0.5,4.4-1.4l0.2-0.1l0.2,0.1c1.3,0.9,2.8,1.4,4.4,1.4c1.6,0,3.1-0.5,4.3-1.4l0.2-0.1l0.2,0.1
			c1.3,0.9,2.8,1.4,4.3,1.4c1.6,0,3.1-0.5,4.3-1.4l0.2-0.1l0.2,0.1c1.3,0.9,2.8,1.4,4.4,1.4c1.6,0,3.2-0.5,4.5-1.5v-0.8H9.9V54.6z
			 M40.5,33.1v20.2H46V33.1H40.5z M44.1,50.9h-1.6v-3.2c0-0.4,0.4-0.7,0.8-0.7c0.4,0,0.8,0.3,0.8,0.7V50.9z M44.2,38.9h-0.6v3.6
			c0.1,0.1,0.3,0.3,0.3,0.4c0,0.3-0.2,0.5-0.5,0.5s-0.5-0.2-0.5-0.5c0-0.2,0.1-0.3,0.3-0.4v-3.6h-0.6v-0.4h0.6v-3.2h0.4v3.2h0.6
			V38.9L44.2,38.9z M16.2,32.3l-0.8-0.4v-0.1c0-0.3-0.1-0.6-0.3-0.9c-0.2-0.4-0.6-0.7-1.2-0.9c-0.6-0.3-0.7-1-0.8-1.5v-0.2l0.1-0.1
			c0.2-0.1,0.4-0.4,0.4-0.6c0-0.3-0.2-0.5-0.4-0.7l-0.1-0.1v-0.4h-0.7v0.4l-0.1,0.1c-0.3,0.1-0.4,0.4-0.4,0.7s0.1,0.5,0.4,0.6
			l0.1,0.1v0.2c-0.1,0.5-0.2,1.3-0.8,1.5c-0.6,0.3-1,0.5-1.2,0.9c-0.2,0.3-0.2,0.6-0.3,0.9v0.1l-0.9,0.4v0.4h7V32.3L16.2,32.3z
			 M29.7,39.6h-3.5V42h3.5V39.6z M15.9,53.3h1.6V37.8h-1.6V53.3z M31.5,35.2h-2.3v1.4h-2.5v-1.4h-2.3v2.1h7L31.5,35.2L31.5,35.2z
			 M24,30.3h-1.8v1.2h-2.4v-1.2h-1.7v2.3h6L24,30.3L24,30.3z M37.9,53.3V33.1h-6v14.1c0,0.2,0.1,0.3,0.1,0.5v5.6H37.9z M34.3,35.6
			c0-0.3,0.3-0.6,0.7-0.6s0.7,0.3,0.7,0.6v2.7h-1.3v-2.7H34.3z M34.3,40.8c0-0.3,0.3-0.6,0.7-0.6s0.7,0.3,0.7,0.6v2.7h-1.3v-2.7
			H34.3z M33.2,47.5c0-0.6,0.8-1.5,1.6-1.9l0.1-0.1l0.1,0.1c0.8,0.4,1.6,1.3,1.6,1.9v3.6h-3.4C33.2,51.1,33.2,47.5,33.2,47.5z
			 M38.4,37.8v15.5H40V37.8H38.4z M37,55.3c-1.3,0.9-2.9,1.4-4.5,1.4s-3.2-0.5-4.5-1.4c-1.3,0.9-2.9,1.4-4.5,1.4s-3.2-0.5-4.5-1.4
			c-1.3,0.9-2.9,1.4-4.5,1.4c-1.6,0-3.2-0.5-4.5-1.4v5.2h36.1v-5.2c-1.3,0.9-2.9,1.4-4.5,1.4C39.9,56.7,38.4,56.2,37,55.3z
			 M21.4,58.5h-5.6v-0.1c0.9-0.2,2.7-0.8,3.1-1.2C19.2,57.5,19.9,58,21.4,58.5L21.4,58.5L21.4,58.5z M30.4,58.5h-5.6v-0.1
			c0.9-0.2,2.7-0.8,3.1-1.2C28.2,57.5,28.9,58,30.4,58.5L30.4,58.5L30.4,58.5z M39.5,58.5h-5.6v-0.1c0.9-0.2,2.7-0.8,3.1-1.2
			C37.3,57.5,38,58,39.5,58.5L39.5,58.5L39.5,58.5z M35,46.1c-0.7,0.4-1.2,1.1-1.2,1.4v3.1h2.5v-3.1C36.2,47.3,35.7,46.6,35,46.1z
			 M15.4,53.3V33.1H9.9v20.2H15.4z M13.5,50.9h-1.6v-3.2c0-0.4,0.4-0.7,0.8-0.7s0.8,0.3,0.8,0.7C13.5,47.7,13.5,50.9,13.5,50.9z
			 M11.7,38.5h0.6v-3.2h0.6v3.2h0.7v0.4H13v3.6c0.1,0.1,0.3,0.3,0.3,0.4c0,0.3-0.2,0.5-0.5,0.5s-0.5-0.2-0.5-0.5
			c0-0.2,0.1-0.3,0.3-0.4v-3.6H12L11.7,38.5L11.7,38.5z" style="fill:#FFFFFF;stroke:none"/>
	</g>
</g>
</svg>
